<svg width="1732" height="204" viewBox="0 0 1732 204" fill="none" xmlns="http://www.w3.org/2000/svg">
  <path
    d="M2 174.293L15.0909 164.872C28.1818 155.451 54.3636 136.609 80.5455 102.298C106.727 67.9858 132.909 18.2037 159.091 24.427C185.273 30.6502 211.455 92.8788 237.636 132.564C263.818 172.249 290 189.392 316.182 192.369C342.364 195.346 368.545 184.159 394.727 157.027C420.909 129.895 447.091 86.8181 473.273 73.2644C499.454 59.7108 525.636 75.6806 551.818 89.8523C578 104.024 604.182 116.398 630.364 127.266C656.545 138.134 682.727 147.496 708.909 154.275C735.091 161.053 761.273 165.247 787.455 149.239C813.636 133.231 839.818 97.021 866 68.4702C892.182 39.9193 918.364 19.0278 944.545 14.6048C970.727 10.1819 996.909 22.2274 1023.09 34.5385C1049.27 46.8495 1075.45 59.4259 1101.64 76.7836C1127.82 94.1412 1154 116.28 1180.18 130.406C1206.36 144.532 1232.55 150.645 1258.73 121.228C1284.91 91.8118 1311.09 26.8659 1337.27 8.29446C1363.45 -10.277 1389.64 17.5259 1415.82 24.038C1442 30.5502 1468.18 15.7716 1494.36 36.7286C1520.55 57.6857 1546.73 114.378 1572.91 126.219C1599.09 138.059 1625.27 105.047 1651.45 110.201C1677.64 115.356 1703.82 158.678 1716.91 180.339L1730 202"
    stroke="#19FFE4" strokeWidth="3" strokeLinecap="round" />
  <path
    d="M2 202L14 201.151C26 200.302 50 198.603 74 173.842C98 149.081 122 101.257 146 103.066C170 104.875 194 156.318 218 153.961C242 151.604 266 95.4479 290 62.9595C314 30.4711 338 21.6503 362 38.8212C386 55.9921 410 99.1545 434 105.311C458 111.467 482 80.6161 506 85.5947C530 90.5733 554 131.381 578 151.534C602 171.687 626 171.185 650 139.732C674 108.279 698 45.875 722 41.3922C746 36.9094 770 90.348 794 120.241C818 150.135 842 156.483 866 132.348C890 108.214 914 53.5977 938 26.3859C962 -0.82598 986 -0.633182 1010 5.05458C1034 10.7423 1058 21.9251 1082 28.4335C1106 34.9419 1130 36.776 1154 35.8253C1178 34.8745 1202 31.1389 1226 40.7158C1250 50.2927 1274 73.1822 1298 100.683C1322 128.184 1346 160.296 1370 172.822C1394 185.347 1418 178.287 1442 173.297C1466 168.308 1490 165.388 1514 163.594C1538 161.799 1562 161.128 1586 142.013C1610 122.899 1634 85.3405 1658 75.3121C1682 65.2836 1706 82.7849 1718 91.5356L1730 100.286"
    stroke="#19FFE4" strokeWidth="3" strokeLinecap="round" />
  <path
    d="M2 91.1572L15.0909 89.3564C28.1818 87.5557 54.3636 83.9541 80.5455 72.0969C106.727 60.2396 132.909 40.1266 159.091 61.9275C185.273 83.7284 211.455 147.443 237.636 177.405C263.818 207.368 290 203.577 316.182 201.849C342.364 200.121 368.545 200.456 394.727 178.725C420.909 156.994 447.091 113.197 473.273 88.8503C499.454 64.5036 525.636 59.6072 551.818 68.4798C578 77.3524 604.182 99.9939 630.364 104.486C656.545 108.979 682.727 95.3217 708.909 104.023C735.091 112.725 761.273 143.784 787.455 149.519C813.636 155.254 839.818 135.664 866 112.906C892.182 90.1479 918.364 64.2224 944.545 56.6362C970.727 49.0499 996.909 59.803 1023.09 65.521C1049.27 71.239 1075.45 71.922 1101.64 73.4118C1127.82 74.9015 1154 77.198 1180.18 81.7596C1206.36 86.3211 1232.55 93.1476 1258.73 103.191C1284.91 113.233 1311.09 126.493 1337.27 111.637C1363.45 96.7817 1389.64 53.8114 1415.82 58.958C1442 64.1046 1468.18 117.368 1494.36 126.062C1520.55 134.755 1546.73 98.8784 1572.91 70.4459C1599.09 42.0135 1625.27 21.0254 1651.45 11.2213C1677.64 1.41717 1703.82 2.79701 1716.91 3.48693L1730 4.17686"
    stroke="#FACC15" strokeWidth="2" strokeLinecap="round" />
</svg>
